<svg xmlns="http://www.w3.org/2000/svg" xmlns:xlink="http://www.w3.org/1999/xlink" version="1.1" id="_x32_" x="0px" y="0px" viewBox="0 0 512 512" style="width: 256px; height: 256px; opacity: 1;" xml:space="preserve">
<style type="text/css">
	.st0{fill:#4B4B4B;}
</style>
<g>
	<path class="st0" d="M496.775,83.747c-6.721-15.806-17.871-29.21-31.906-38.722c-14.02-9.504-31.06-15.111-49.207-15.111h-98.494   V8.105c0-4.475-3.629-8.105-8.104-8.105H206.915c-4.483,0-8.105,3.63-8.105,8.105v21.809H96.347   c-12.098,0-23.714,2.491-34.254,6.966c-15.814,6.729-29.218,17.878-38.722,31.922C13.858,82.814,8.252,99.846,8.259,118.01v287.32   c0,12.09,2.484,23.722,6.967,34.263c6.722,15.806,17.87,29.21,31.906,38.714c10.659,7.236,23.074,12.185,36.374,14.146L90.291,512   h37.663l6.452-18.59h247.16l6.452,18.59h37.663l7.037-20.267c5.97-1.178,11.735-2.957,17.199-5.282   c15.815-6.721,29.218-17.878,38.722-31.906c9.504-14.028,15.111-31.06,15.103-49.216V118.01   C503.741,105.911,501.258,94.288,496.775,83.747z M55.277,432.934c-5.369-7.955-8.469-17.372-8.477-27.605V118.01   c0-6.832,1.384-13.277,3.891-19.191c3.763-8.865,10.113-16.511,18.052-21.88c7.954-5.378,17.372-8.477,27.604-8.484h319.314   c6.832,0.008,13.269,1.391,19.183,3.898c8.864,3.764,16.502,10.113,21.88,18.052c5.376,7.947,8.477,17.364,8.477,27.605v287.32   c0,6.832-1.384,13.269-3.891,19.192c-3.756,8.856-10.106,16.502-18.044,21.879c-7.954,5.369-17.38,8.469-27.605,8.477H96.347   c-6.831-0.008-13.276-1.384-19.182-3.898C68.3,447.223,60.646,440.874,55.277,432.934z" style="fill: rgb(222, 222, 222);"/>
	<path class="st0" d="M253.853,281.004c0.34,0,0.664-0.048,1.004-0.072c0.482,0.039,0.957,0.072,1.455,0.072   c2.578,0,5.037-0.514,7.291-1.424l75.855-11.15c2.989-0.443,5.234-3.368,5.234-6.824c0-3.455-2.245-6.373-5.234-6.808   l-68.897-10.137l-11.964-106.037c-0.118-0.997-1.107-1.764-2.285-1.764c-1.186,0-2.174,0.767-2.285,1.764L241.66,248.156   c-2.934,3.487-4.752,8.223-4.752,13.45C236.908,272.321,244.491,281.004,253.853,281.004z M261.69,219.381h-10.754l3.938-34.887   c0.071-0.632,0.696-1.115,1.439-1.115c0.752,0,1.36,0.482,1.432,1.115L261.69,219.381z" style="fill: rgb(222, 222, 222);"/>
	<rect x="249.789" y="86.522" class="st0" width="12.422" height="27.328" style="fill: rgb(222, 222, 222);"/>
	<rect x="249.789" y="409.481" class="st0" width="12.422" height="27.328" style="fill: rgb(222, 222, 222);"/>
	<polygon class="st0" points="413.755,267.877 441.083,267.877 441.083,267.237 456.819,267.237 456.819,256.087 441.083,256.087    441.083,255.455 413.755,255.455  " style="fill: rgb(222, 222, 222);"/>
	<polygon class="st0" points="98.245,267.877 98.245,255.455 70.917,255.455 70.917,256.087 55.174,256.087 55.174,267.237    70.917,267.237 70.917,267.877  " style="fill: rgb(222, 222, 222);"/>
	<polygon class="st0" points="415.479,175.408 410.45,166.687 391.275,177.757 396.312,186.47  " style="fill: rgb(222, 222, 222);"/>
	<polygon class="st0" points="96.529,347.931 101.559,356.644 120.726,345.582 115.697,336.86  " style="fill: rgb(222, 222, 222);"/>
	
		<rect x="336.06" y="103.227" transform="matrix(0.8661 0.4999 -0.4999 0.8661 102.8014 -155.1957)" class="st0" width="10.061" height="22.13" style="fill: rgb(222, 222, 222);"/>
	<polygon class="st0" points="180.805,401.977 172.091,396.94 161.029,416.108 169.743,421.145  " style="fill: rgb(222, 222, 222);"/>
	
		<rect x="159.852" y="109.262" transform="matrix(0.4999 0.8661 -0.8661 0.4999 184.4726 -90.8703)" class="st0" width="22.13" height="10.061" style="fill: rgb(222, 222, 222);"/>
	
		<rect x="330.026" y="404.008" transform="matrix(-0.4999 -0.8661 0.8661 -0.4999 157.3124 908.9193)" class="st0" width="22.131" height="10.061" style="fill: rgb(222, 222, 222);"/>
	<polygon class="st0" points="120.726,177.757 101.559,166.687 96.529,175.408 115.697,186.47  " style="fill: rgb(222, 222, 222);"/>
	<polygon class="st0" points="415.479,347.931 396.304,336.86 391.275,345.574 410.443,356.644  " style="fill: rgb(222, 222, 222);"/>
</g>
</svg>