<svg xmlns="http://www.w3.org/2000/svg" xmlns:xlink="http://www.w3.org/1999/xlink" version="1.1" id="_x32_" x="0px" y="0px" viewBox="0 0 512 512" style="width: 256px; height: 256px; opacity: 1;" xml:space="preserve">
<style type="text/css">
	.st0{fill:#4B4B4B;}
</style>
<g>
	<polygon class="st0" points="472.008,336 472.008,240 272,240 272,176 312,176 312,16 200,16 200,176 240,176 240,240 40.016,240    40.008,336 0,336 0,496 112,496 112,336 72,336 72,272 240,272 240,336 200,336 200,496 312,496 312,336 272,336 272,272 440,272    440,336 400,336 400,496 512,496 512,336  " style="fill: rgb(216, 216, 216);"/>
</g>
</svg>