<svg xmlns="http://www.w3.org/2000/svg" xmlns:xlink="http://www.w3.org/1999/xlink" version="1.1" id="_x32_" x="0px" y="0px" viewBox="0 0 512 512" style="width: 256px; height: 256px; opacity: 1;" xml:space="preserve">
<style type="text/css">
	.st0{fill:#4B4B4B;}
</style>
<g>
	<path class="st0" d="M134.75,0v307.684c-14.347-2.241-29.784-1.552-45.222,3.303c-46.227,14.534-73.715,58.046-61.393,97.194   c12.307,39.063,59.771,58.996,105.984,44.462c35.443-11.144,62.887-39.349,66.822-69.478V117.602l219.68,41.776v202.82   c-14.06-2.068-29.154-1.35-44.218,3.403c-46.227,14.578-73.715,58.09-61.393,97.153c12.294,39.133,59.756,59.024,105.983,44.49   c36.751-11.575,63.361-41.504,65.816-72.898V60.676L134.75,0z" style="fill: rgb(197, 197, 197);"/>
</g>
</svg>